inDegrees=yes
name=ik_S50_A08_T01
DataType=double
version=3
OpenSimVersion=4.3-2021-08-27-4bc7ad9
endheader
time	pelvis_tilt	pelvis_list	pelvis_rotation	pelvis_tx	pelvis_ty	pelvis_tz	hip_flexion_r	hip_adduction_r	hip_rotation_r	knee_angle_r	knee_angle_r_beta	ankle_angle_r	subtalar_angle_r	mtp_angle_r	hip_flexion_l	hip_adduction_l	hip_rotation_l	knee_angle_l	knee_angle_l_beta	ankle_angle_l	subtalar_angle_l	mtp_angle_l	lumbar_extension	lumbar_bending	lumbar_rotation	arm_flex_r	arm_add_r	arm_rot_r	elbow_flex_r	pro_sup_r	wrist_flex_r	wrist_dev_r	arm_flex_l	arm_add_l	arm_rot_l	elbow_flex_l	pro_sup_l	wrist_flex_l	wrist_dev_l
21.35999999999963	-5.792431178119168	-2.172436749636764	35.86882043021581	0	0.9399999999999999	0	44.82563655225834	-10.02745709372803	-10.12407037560607	55.20930723336951	0.9635841889674193	0	0	0	44.82563655225834	-10.02745709372803	-10.12407037560607	55.20930723336951	0.9635841889674193	0	0	0	-4.657184899081744	-1.497467270818643	-2.347662568899461	9.769718676331971	-4.45599556994843	-3.426698574180298	59.77318475166864	105.4747621121763	0	0	29.66605813944011	-13.90976288379553	-15.50706399795038	88.24328843867269	101.8261905963968	0	0
21.37999999999963	-5.796466958250234	-2.205936331203945	36.03712383264898	0	0.9399999999999999	0	44.82573977981837	-10.02740037165306	-10.1239058987277	55.20922427464726	0.9635827410645728	0	0	0	44.82573977981837	-10.02740037165306	-10.1239058987277	55.20922427464726	0.9635827410645728	0	0	0	-4.683657661743747	-1.510090966373721	-2.442699078615935	9.780166567658741	-4.466616276067628	-3.414212960771976	59.83049279506678	105.4635529813214	0	0	28.56297469264187	-14.4357991169387	-15.78641551285129	90.08947439076069	101.5842540495836	0	0
21.39999999999963	-5.814302487863334	-2.238747605930666	36.11113071544326	0	0.9399999999999999	0	44.82584614306865	-10.02734203070334	-10.12373658557097	55.20913875159715	0.9635812484057621	0	0	0	44.82584614306865	-10.02734203070334	-10.12373658557097	55.20913875159715	0.9635812484057621	0	0	0	-4.719789252610729	-1.524723451262727	-2.458462349277828	9.782748870140265	-4.499373757639654	-3.37080631950062	59.92670608415977	105.4150947062908	0	0	26.15057929449321	-15.18925277595968	-15.70434690834708	93.00974051803564	101.0877037998596	0	0
21.41999999999963	-5.815690927670204	-2.270846746479904	36.09241278506293	0	0.9399999999999999	0	44.82596100246882	-10.02727902193604	-10.12355368667129	55.20904652337933	0.9635796387196979	0	0	0	44.82596100246882	-10.02727902193604	-10.12355368667129	55.20904652337933	0.9635796387196979	0	0	0	-4.737807783887606	-1.55581778573192	-2.38417715644133	9.791344769650957	-4.510714800196462	-3.319481089521787	60.02548122515657	105.2971886232604	0	0	24.90761717939593	-15.46313845251602	-15.28009194648626	94.03742289675051	100.6416571528591	0	0
21.43999999999963	-5.826212030840064	-2.284905039095234	36.04913960483744	0	0.9399999999999999	0	44.82607390671534	-10.0272172089842	-10.12337408950486	55.20895581555337	0.9635780555694776	0	0	0	44.82607390671534	-10.0272172089842	-10.12337408950486	55.20895581555337	0.9635780555694776	0	0	0	-4.753121166021913	-1.565158456502427	-2.321767523580493	9.768499717163609	-4.559600455730767	-3.267925044427861	60.11136126325444	105.2530869901868	0	0	23.66474713334572	-15.71299263583018	-14.983024508691	95.34096599959847	100.3736282349088	0	0
21.45999999999963	-5.85022601630523	-2.313240918577729	36.0698133690399	0	0.9399999999999999	0	44.82615771041817	-10.02717167966881	-10.12324143182014	55.20888806835075	0.9635768731577327	0	0	0	44.82615771041817	-10.02717167966881	-10.12324143182014	55.20888806835075	0.9635768731577327	0	0	0	-4.788503353640157	-1.576524861274181	-2.285872757953659	9.82250025689221	-4.589607649388904	-3.252960984410931	60.1693785914502	105.1987291317854	0	0	23.73891021171611	-15.67262261270358	-14.74828756111802	94.72922191995492	100.4372247677443	0	0
21.47999999999963	-5.855761888123691	-2.314704165694986	35.93516022957699	0	0.9399999999999999	0	44.82628096149233	-10.02710436183123	-10.12304558892767	55.20878906246789	0.9635751451790981	0	0	0	44.82628096149233	-10.02710436183123	-10.12304558892767	55.20878906246789	0.9635751451790981	0	0	0	-4.789238749127142	-1.584865070860818	-2.137995006719565	9.80331980961183	-4.614155902952545	-3.203037281177692	60.2231948730742	105.1491534650154	0	0	21.43131701369786	-16.051118609775	-14.1075775383253	97.06806812393371	100.0548508614027	0	0
